<svg width="117" height="21" viewBox="0 0 117 21" fill="none" xmlns="http://www.w3.org/2000/svg">
<path d="M0.203125 2.58594H6.97656V12.6758L14.5117 2.58594H17.8984L12.3438 10.0625L19.6211 20.0117H11.9922L8.10156 14.5391L6.97656 16.0859V20H0.203125V2.58594ZM20.5586 14.1992C20.5586 13.2773 20.7461 12.4453 21.1211 11.7031C21.5039 10.9609 22.0508 10.3281 22.7617 9.80469C23.4805 9.28125 24.3555 8.87891 25.3867 8.59766C26.418 8.30859 27.5898 8.16406 28.9023 8.16406C30.2148 8.16406 31.3867 8.30859 32.418 8.59766C33.4492 8.87891 34.3203 9.28125 35.0312 9.80469C35.75 10.3281 36.2969 10.9609 36.6719 11.7031C37.0547 12.4453 37.2461 13.2773 37.2461 14.1992C37.2461 15.1133 37.0547 15.9414 36.6719 16.6836C36.2969 17.4258 35.75 18.0586 35.0312 18.582C34.3203 19.1055 33.4492 19.5117 32.418 19.8008C31.3867 20.082 30.2148 20.2227 28.9023 20.2227C27.5898 20.2227 26.418 20.082 25.3867 19.8008C24.3555 19.5117 23.4805 19.1055 22.7617 18.582C22.0508 18.0586 21.5039 17.4258 21.1211 16.6836C20.7461 15.9414 20.5586 15.1133 20.5586 14.1992ZM28.9023 18.0781C29.1914 18.0781 29.4492 18.0195 29.6758 17.9023C29.9023 17.7852 30.0898 17.582 30.2383 17.293C30.3867 16.9961 30.5 16.5977 30.5781 16.0977C30.6562 15.5977 30.6953 14.9648 30.6953 14.1992C30.6953 13.4258 30.6562 12.7891 30.5781 12.2891C30.5 11.7891 30.3867 11.3945 30.2383 11.1055C30.0898 10.8086 29.9023 10.6016 29.6758 10.4844C29.4492 10.3672 29.1914 10.3086 28.9023 10.3086C28.6055 10.3086 28.3438 10.3672 28.1172 10.4844C27.8984 10.6016 27.7148 10.8086 27.5664 11.1055C27.418 11.3945 27.3047 11.7891 27.2266 12.2891C27.1484 12.7891 27.1094 13.4258 27.1094 14.1992C27.1094 14.9648 27.1484 15.5977 27.2266 16.0977C27.3047 16.5977 27.418 16.9961 27.5664 17.293C27.7148 17.582 27.8984 17.7852 28.1172 17.9023C28.3438 18.0195 28.6055 18.0781 28.9023 18.0781ZM39.7656 0.652344H46.1289V13.2734L50.8516 8.38672H54.3672L50.6406 12.1719L56.3945 20L49.2695 19.9883L46.1289 15.4883V20H39.7656V0.652344ZM57.3086 14.1992C57.3086 13.2773 57.4961 12.4453 57.8711 11.7031C58.2539 10.9609 58.8008 10.3281 59.5117 9.80469C60.2305 9.28125 61.1055 8.87891 62.1367 8.59766C63.168 8.30859 64.3398 8.16406 65.6523 8.16406C66.9648 8.16406 68.1367 8.30859 69.168 8.59766C70.1992 8.87891 71.0703 9.28125 71.7812 9.80469C72.5 10.3281 73.0469 10.9609 73.4219 11.7031C73.8047 12.4453 73.9961 13.2773 73.9961 14.1992C73.9961 15.1133 73.8047 15.9414 73.4219 16.6836C73.0469 17.4258 72.5 18.0586 71.7812 18.582C71.0703 19.1055 70.1992 19.5117 69.168 19.8008C68.1367 20.082 66.9648 20.2227 65.6523 20.2227C64.3398 20.2227 63.168 20.082 62.1367 19.8008C61.1055 19.5117 60.2305 19.1055 59.5117 18.582C58.8008 18.0586 58.2539 17.4258 57.8711 16.6836C57.4961 15.9414 57.3086 15.1133 57.3086 14.1992ZM65.6523 18.0781C65.9414 18.0781 66.1992 18.0195 66.4258 17.9023C66.6523 17.7852 66.8398 17.582 66.9883 17.293C67.1367 16.9961 67.25 16.5977 67.3281 16.0977C67.4062 15.5977 67.4453 14.9648 67.4453 14.1992C67.4453 13.4258 67.4062 12.7891 67.3281 12.2891C67.25 11.7891 67.1367 11.3945 66.9883 11.1055C66.8398 10.8086 66.6523 10.6016 66.4258 10.4844C66.1992 10.3672 65.9414 10.3086 65.6523 10.3086C65.3555 10.3086 65.0938 10.3672 64.8672 10.4844C64.6484 10.6016 64.4648 10.8086 64.3164 11.1055C64.168 11.3945 64.0547 11.7891 63.9766 12.2891C63.8984 12.7891 63.8594 13.4258 63.8594 14.1992C63.8594 14.9648 63.8984 15.5977 63.9766 16.0977C64.0547 16.5977 64.168 16.9961 64.3164 17.293C64.4648 17.582 64.6484 17.7852 64.8672 17.9023C65.0938 18.0195 65.3555 18.0781 65.6523 18.0781ZM76.9727 17C77.293 17.1719 77.6016 17.3281 77.8984 17.4688C78.1953 17.6094 78.4922 17.7305 78.7891 17.832C79.0859 17.9258 79.3828 18 79.6797 18.0547C79.9844 18.1094 80.3008 18.1367 80.6289 18.1367C81.1445 18.1367 81.5156 18.0742 81.7422 17.9492C81.9688 17.8242 82.082 17.6602 82.082 17.457C82.082 17.332 82.043 17.2266 81.9648 17.1406C81.8945 17.0547 81.793 16.9805 81.6602 16.918C81.5273 16.8477 81.3711 16.7852 81.1914 16.7305C81.0117 16.668 80.8125 16.6055 80.5938 16.543L79.9258 16.3438C79.2695 16.1484 78.7031 15.9219 78.2266 15.6641C77.75 15.3984 77.3594 15.1016 77.0547 14.7734C76.75 14.4453 76.5234 14.0938 76.375 13.7188C76.2266 13.3359 76.1523 12.9297 76.1523 12.5C76.1523 11.9453 76.2773 11.4102 76.5273 10.8945C76.7773 10.3711 77.1641 9.90625 77.6875 9.5C78.2109 9.09375 78.8789 8.76953 79.6914 8.52734C80.5117 8.28516 81.4844 8.16406 82.6094 8.16406C83.0312 8.16406 83.4688 8.19141 83.9219 8.24609C84.3828 8.29297 84.8281 8.35547 85.2578 8.43359C85.6875 8.51172 86.0898 8.60156 86.4648 8.70312C86.8398 8.79688 87.1562 8.89453 87.4141 8.99609L86.3828 10.8828C86.2109 10.7891 86.0078 10.707 85.7734 10.6367C85.5469 10.5586 85.3125 10.4922 85.0703 10.4375C84.8281 10.375 84.5938 10.3281 84.3672 10.2969C84.1484 10.2656 83.9609 10.25 83.8047 10.25C83.3516 10.25 83.0273 10.3125 82.832 10.4375C82.6367 10.5625 82.5391 10.7148 82.5391 10.8945C82.5391 10.9648 82.5586 11.0391 82.5977 11.1172C82.6367 11.1953 82.7148 11.2773 82.832 11.3633C82.9492 11.4492 83.1133 11.5391 83.3242 11.6328C83.5352 11.7266 83.8125 11.8242 84.1562 11.9258L84.8125 12.125C85.5391 12.3438 86.1406 12.5898 86.6172 12.8633C87.1016 13.1367 87.4883 13.4336 87.7773 13.7539C88.0742 14.0664 88.2812 14.3984 88.3984 14.75C88.5234 15.1016 88.5859 15.4609 88.5859 15.8281C88.5859 16.3906 88.4492 16.9375 88.1758 17.4688C87.9023 18 87.4648 18.4688 86.8633 18.875C86.2695 19.2812 85.5 19.6094 84.5547 19.8594C83.6094 20.1016 82.4648 20.2227 81.1211 20.2227C80.543 20.2227 80.0117 20.1992 79.5273 20.1523C79.043 20.1055 78.5859 20.0352 78.1562 19.9414C77.7266 19.8477 77.3125 19.7344 76.9141 19.6016C76.5234 19.4609 76.1367 19.3047 75.7539 19.1328L76.9727 17ZM91.0469 0.652344H97.4102V10.25C98.2852 9.61719 99.1797 9.11328 100.094 8.73828C101.016 8.35547 101.98 8.16406 102.988 8.16406C103.527 8.16406 104.027 8.25391 104.488 8.43359C104.957 8.61328 105.363 8.89062 105.707 9.26562C106.051 9.64062 106.32 10.125 106.516 10.7188C106.711 11.3047 106.809 12.0078 106.809 12.8281V20H100.445V12.4297C100.445 12.0234 100.355 11.7266 100.176 11.5391C100.004 11.3516 99.7188 11.2578 99.3203 11.2578C99.1406 11.2578 98.9609 11.2852 98.7812 11.3398C98.6094 11.3945 98.4414 11.4648 98.2773 11.5508C98.1133 11.6367 97.957 11.7344 97.8086 11.8438C97.6602 11.9531 97.5273 12.0625 97.4102 12.1719V20H91.0469V0.652344ZM113.16 6.45312C112.582 6.45312 112.082 6.39062 111.66 6.26562C111.246 6.14062 110.906 5.96875 110.641 5.75C110.375 5.52344 110.18 5.26562 110.055 4.97656C109.93 4.67969 109.867 4.35937 109.867 4.01562C109.867 3.67969 109.93 3.36328 110.055 3.06641C110.18 2.76953 110.375 2.51172 110.641 2.29297C110.906 2.06641 111.246 1.89063 111.66 1.76562C112.082 1.64062 112.582 1.57812 113.16 1.57812C113.746 1.57812 114.246 1.64062 114.66 1.76562C115.074 1.89063 115.414 2.06641 115.68 2.29297C115.953 2.51172 116.152 2.76953 116.277 3.06641C116.402 3.36328 116.465 3.67969 116.465 4.01562C116.465 4.35937 116.402 4.67969 116.277 4.97656C116.152 5.26562 115.953 5.52344 115.68 5.75C115.414 5.96875 115.074 6.14062 114.66 6.26562C114.246 6.39062 113.746 6.45312 113.16 6.45312ZM109.984 8.38672H116.348V20H109.984V8.38672Z" fill="#8728FF"/>
</svg>
